# xmcd
#
# Track frame offsets:
#	150
#	21147
#	41845
#	62170
#	80272
#	102172
#	121270
#	140272
#	163084
#	182875
#	204007
#	226625
#	246542
#	269817
#
# Disc length: 3895 seconds
#
# Revision: 1
# Processed by: cddbd v1.5.1PL0 Copyright (c) Steve Scherf et al.
# Submitted via: CDex 1.50Beta5
#
DISCID=be0f350e
DTITLE=藤あや子 - おばこ巡礼歌〜オリジナル全集〜
DYEAR=1996
DGENRE=World
TTITLE0=おばこ巡礼歌
TTITLE1=しぐれ傘
TTITLE2=恋灯の宿
TTITLE3=夢咲川
TTITLE4=秘密
TTITLE5=約束
TTITLE6=こころ酒
TTITLE7=情歌
TTITLE8=しあわせ春秋
TTITLE9=紙の舟
TTITLE10=さすらい
TTITLE11=TOKYO海燕
TTITLE12=銀河心中
TTITLE13=むらさき雨情
EXTD=
EXTT0=
EXTT1=
EXTT2=
EXTT3=
EXTT4=
EXTT5=
EXTT6=
EXTT7=
EXTT8=
EXTT9=
EXTT10=
EXTT11=
EXTT12=
EXTT13=
PLAYORDER=
